<svg width="135" height="40" viewBox="0 0 135 40" fill="none" xmlns="http://www.w3.org/2000/svg">
<path d="M124.249 3.84473e-05H10.7566C10.3429 3.84473e-05 9.9342 3.84473e-05 9.5216 0.00203845C9.17621 0.00403845 8.83358 0.00984845 8.48488 0.0147384C7.72733 0.0226403 6.97157 0.0817147 6.22416 0.191448C5.4778 0.303571 4.75482 0.514954 4.07967 0.818448C3.40534 1.12451 2.7892 1.52221 2.25357 1.99711C1.71514 2.47068 1.26632 3.01805 0.924356 3.6182C0.581453 4.21715 0.343683 4.85898 0.219258 5.52152C0.0936495 6.18322 0.0260586 6.85256 0.0170916 7.52352C0.00662229 7.83012 0.00551669 8.13774 0 8.44438V31.5586C0.00551669 31.8691 0.00662229 32.1699 0.0170916 32.4805C0.0260614 33.1515 0.0936522 33.8208 0.219258 34.4824C0.343339 35.1454 0.581124 35.7876 0.924356 36.3867C1.26616 36.9849 1.71505 37.5301 2.25357 38.001C2.78717 38.4781 3.40371 38.876 4.07967 39.1797C4.75481 39.484 5.47772 39.6967 6.22416 39.8105C6.9717 39.9194 7.72738 39.9785 8.48488 39.9873C8.83358 39.9941 9.17621 39.998 9.5216 39.998C9.93419 40 10.343 40 10.7566 40H124.249C124.655 40 125.067 40 125.472 39.998C125.816 39.998 126.169 39.9941 126.512 39.9873C127.268 39.979 128.023 39.9199 128.769 39.8105C129.518 39.6959 130.243 39.4833 130.921 39.1797C131.597 38.8758 132.213 38.4779 132.746 38.001C133.283 37.5283 133.733 36.9835 134.079 36.3867C134.42 35.7871 134.655 35.145 134.777 34.4824C134.903 33.8207 134.973 33.1515 134.987 32.4805C134.991 32.1699 134.991 31.8691 134.991 31.5586C135 31.1953 135 30.834 135 30.4648V9.53617C135 9.16996 135 8.80668 134.991 8.44438C134.991 8.13774 134.991 7.83012 134.987 7.52348C134.973 6.85246 134.903 6.18327 134.777 5.52148C134.655 4.85932 134.419 4.21754 134.079 3.61816C133.383 2.41523 132.278 1.43606 130.921 0.818358C130.243 0.515606 129.518 0.304279 128.769 0.191358C128.023 0.0811412 127.269 0.0220462 126.512 0.0145984C126.169 0.00971845 125.816 0.00385845 125.472 0.00190845C125.067 -9.15527e-05 124.655 -9.15527e-05 124.249 -9.15527e-05V3.84473e-05Z" fill="#A6A6A6"/>
<path d="M9.43001 39.1281C9.08569 39.1281 8.74969 39.1242 8.40807 39.1174C7.70037 39.1092 6.99433 39.0547 6.29574 38.9542C5.64433 38.8549 5.0133 38.6702 4.42345 38.4062C3.839 38.1444 3.30594 37.8011 2.84469 37.3894C2.37676 36.9826 1.98718 36.5108 1.6914 35.9926C1.39236 35.4711 1.18541 34.9121 1.07775 34.3351C0.961494 33.715 0.898592 33.0881 0.889592 32.4597C0.882427 32.2487 0.873047 31.5464 0.873047 31.5464V8.44098C0.873047 8.44098 0.883037 7.74942 0.889648 7.54625C0.898266 6.9188 0.960802 6.29284 1.07671 5.67379C1.18457 5.09519 1.39168 4.53457 1.69088 4.01134C1.98557 3.49355 2.37299 3.02137 2.8381 2.6131C3.30269 2.20096 3.83745 1.85587 4.42289 1.59042C5.01139 1.32725 5.64123 1.14385 6.29132 1.04636C6.99221 0.944908 7.7007 0.890056 8.41085 0.882269L9.43056 0.870056H125.57L126.602 0.882759C127.306 0.89016 128.008 0.944522 128.702 1.04538C129.359 1.14409 129.995 1.32877 130.59 1.59335C131.763 2.12831 132.718 2.97466 133.32 4.01378C133.614 4.5334 133.818 5.08945 133.924 5.66305C134.042 6.28718 134.107 6.91806 134.121 7.55065C134.124 7.83391 134.124 8.13818 134.124 8.44098C134.133 8.81606 134.133 9.17306 134.133 9.533V30.466C134.133 30.8294 134.133 31.184 134.124 31.5415C134.124 31.8667 134.124 32.1647 134.12 32.4714C134.107 33.0927 134.042 33.7123 133.927 34.3253C133.821 34.9064 133.615 35.4698 133.316 35.9956C133.018 36.5081 132.631 36.9759 132.169 37.3816C131.707 37.7955 131.173 38.1408 130.587 38.4043C129.994 38.6704 129.358 38.8557 128.702 38.9542C128.004 39.0552 127.297 39.1097 126.59 39.1174C126.259 39.1242 125.912 39.1281 125.576 39.1281L124.35 39.1301L9.43001 39.1281Z" fill="black"/>
</svg>
